<?xml version="1.0" encoding="UTF-8"?>
<svg id="Capa_1" data-name="Capa 1" xmlns="http://www.w3.org/2000/svg" xmlns:xlink="http://www.w3.org/1999/xlink" viewBox="0 0 1018.32 614.36">
  <defs>
    <style>
      .cls-1, .cls-2, .cls-3 {
        fill: #fff;
      }

      .cls-1, .cls-3 {
        font-size: 160.03px;
      }

      .cls-4 {
        fill: #d0d5d4;
      }

      .cls-5 {
        fill: #8abf4d;
      }

      .cls-6 {
        fill: #bbbfbe;
      }

      .cls-7 {
        fill: #60a042;
      }

      .cls-8 {
        fill: #1782c0;
      }

      .cls-9 {
        fill: #f29223;
      }

      .cls-10, .cls-11, .cls-3 {
        font-family: CoolveticaBk-Regular, Coolvetica;
      }

      .cls-12 {
        fill: #e73a39;
      }

      .cls-13 {
        font-family: Arial-Black, 'Arial Black';
        font-weight: 800;
      }

      .cls-11 {
        letter-spacing: -.19em;
      }

      .cls-14 {
        fill: #6dc1cd;
      }

      .cls-15 {
        fill: #fefefe;
      }

      .cls-16 {
        fill: #1d5aa6;
      }

      .cls-17 {
        fill: #0e549b;
      }

      .cls-18 {
        fill: #fccf17;
      }

      .cls-3 {
        letter-spacing: 0em;
      }

      .cls-19 {
        fill: #cde3dd;
      }

      .cls-20 {
        fill: #cfdad7;
      }

      .cls-21 {
        fill: #70c5d1;
      }
    </style>
  </defs>
  <text class="cls-1" transform="translate(230.85 137.3)"><tspan class="cls-13" x="0" y="0" xml:space="preserve">  </tspan><tspan class="cls-11" x="106.74" y="0">L</tspan><tspan class="cls-10" x="155.86" y="0">TRA </tspan></text>
  <text class="cls-3" transform="translate(214.85 252.26)"><tspan x="0" y="0" xml:space="preserve"> BINGO</tspan></text>
  <image width="1154" height="1582" transform="translate(247.8 28.41) scale(.07)" xlink:href="logo blanco png-8.png"/>
  <g id="CBMInI.tif">
    <g>
      <path class="cls-14" d="M111.66,23.69c33.51,2.45,65.3,23.1,81.53,52.33,27.87,50.18,8.9,113.73-41.72,139.92-1.21-2.48-2.84-5.15-4.12-7.78,42.34-22.06,61.24-73.53,42.78-118.09C161.29,20.46,64.5,11.92,23.89,75.74c-29.26,45.98-12.7,107.37,35.14,132.42-1.22,2.52-2.48,5.34-3.66,7.78C4.74,189.77-14.22,126.15,13.65,76.02c1.31-2.35,3.18-5.81,4.65-7.93,5.83-8.39,14.32-17.03,22.42-23.34,11.18-8.71,25.53-15.37,39.35-18.54l15.11-2.51c5.38.29,11.14-.39,16.47,0Z"/>
      <path class="cls-20" d="M124.93,160.55c4.71,9.81,9.47,19.98,14.19,29.75,1.85,3.84,3.59,7.98,5.49,11.9.94,1.95,1.79,3.99,2.75,5.95,1.28,2.63,2.91,5.3,4.12,7.78,3.51,7.22,6.79,14.64,10.07,21.97-6.4-.06-12.82.02-19.22,0-1.9-5.13-5.02-9.74-7.32-14.65-1.24-2.64-2.37-5.53-3.66-8.24-.93-1.95-1.82-4-2.75-5.95-2.7-5.67-5.52-11.28-8.24-16.94s-4.95-11.21-7.86-16.65c-.34-.64-.18-1.45-1.29-1.2-.47-5.23-5.45-14.14-11.45-8.94-1.6,1.38-6.61,12.3-7.85,15.04-.68,1.5-1.51,3.25-1.75,4.89-1.18.7-3.69,6.39-4.51,8.08-1.02,2.08-4.26,8.44-4.18,10.23-1.11-.24-.95.56-1.29,1.2-.75,1.4-1.25,2.88-1.91,4.29-.94,1.99-1.83,3.95-2.75,5.95s-2.32,4.13-3.16,6.25c-.3.75-.7,1.2-.05,1.99l-.95.28-6.83,14.36c-3.2,0-6.41-.01-9.61,0l41.23-87.59c3.11.92,6.36,1.24,9.59.94,4.42-.41,8.65-1.96,12.29-4.5,1.71,4.42,3.89,8.55,5.9,12.76.28.58.96.93,1,1.03Z"/>
      <rect class="cls-8" x="2.27" y="247.04" width="202.31" height="11.03"/>
      <path class="cls-16" d="M54.91,237.91c3.2-.01,6.41,0,9.61,0,25.92-.07,51.87-.07,77.79,0,6.4.02,12.82-.06,19.22,0,2.34.02,9.77-.45,11.24.43,2.07,1.23.76,6.52,1.12,8.7H43.47c.39-2.73-1.13-6.7,1.37-9.13.15,0,.31,0,.46,0,3.2-.04,6.41.01,9.61,0Z"/>
      <path class="cls-6" d="M96.15,150.33l-41.23,87.59c-3.2.01-6.41-.04-9.61,0,3.32-7.31,6.57-14.75,10.07-21.97,1.18-2.44,2.44-5.26,3.66-7.78.85-1.75,2.19-3.86,3.2-5.95,3.84-7.91,7.57-15.91,11.44-23.8,1.4-2.85,3.42-5.5,4.12-8.7,1.29-1.59,4.77-8.61,5.03-10.53,2.35-3.91,4.47-8.05,5.97-12.38,2.25,1.56,4.73,2.75,7.35,3.53Z"/>
      <path class="cls-21" d="M32.95,37.42c-7.66,7.21-14.97,15.15-22.42,22.43-.23.22-2.22,1.34-2.51,1.36-1.26.05-9.65-7.04-6.44-9.16l24.17-23.88c2.04-1.61,6.82,3.55,7.87,5.17s.67,2.84-.66,4.1Z"/>
      <path class="cls-19" d="M32.95,37.42l7.78,7.32c-8.1,6.31-16.59,14.96-22.42,23.34l-7.78-8.24c7.46-7.28,14.76-15.21,22.42-22.43Z"/>
      <path class="cls-17" d="M44.85,237.91c-2.5,2.43-.98,6.41-1.37,9.13h-10.07l-.46.02c.27-1.84-.6-7.42.57-8.59.99-.99,9.29-.54,11.33-.57Z"/>
      <polygon class="cls-16" points="33.41 247.04 32.95 247.04 32.95 247.07 33.41 247.04"/>
      <path class="cls-19" d="M147.35,208.16c-.95-1.96-1.8-4-2.75-5.95,2.1-1.61,4.87-2.68,7.01-4.11.44-.3.27-.9.31-.93,4.75-3.25,6.7-4.66,10.98-8.7,1.77-1.67,3.38-3.23,5.03-5.04,1.92-2.09,2.85-3.25,4.58-5.49,1.05-1.36,1.74-2.19,2.75-3.66,6.1-8.97,9.07-15.65,11.9-26.09,8.17-30.11.78-59.12-20.59-81.48-1.87-1.96-3.63-3.34-5.49-5.04-17.94-16.31-39.55-24.04-64.29-22.42-15.8,1.03-37.76,9.26-49.41,20.15-.67.63-1.85,1.35-1.57,2.41l43.01,42.95c-2.04,1.42-3.87,3.12-5.42,5.07l-42.96-43.08c-2.11-.37-12.41,15.23-13.69,17.8-.37.74-.74,1.44-.67,2.31-.39.15-.83.66-1.05,1.04-2.83,5.05-5.93,15.07-7.07,20.81-.26,1.3.06,2.63-.12,3.78-.05.3-.68,1.29-.79,2.18-1.41,11.55-.83,24.34,3.08,35.35-.36,3.39,5.46,15.04,7.41,18.45.66,1.15,1.83,2.02,2.2,2.61,3.4,5.44,4.8,7.54,9.15,12.36,1.63,1.81,3.29,3.35,5.03,5.04.09.09.16.92.65,1.39,5,4.83,11.59,8.99,17.66,12.34-1.01,2.09-2.35,4.2-3.2,5.95C11.19,183.11-5.36,121.72,23.89,75.74c40.61-63.82,137.4-55.28,166.24,14.33,18.46,44.56-.44,96.03-42.78,118.09Z"/>
      <path class="cls-16" d="M118,104.8c2.04,1.42,3.85,3.13,5.4,5.07,7.02,8.83,7.43,21.22,1,30.5-1.29,1.87-2.83,3.55-4.57,5.01-.58.49-1.19.95-1.81,1.39-3.64,2.54-7.87,4.09-12.29,4.5-21.33-4.79-28.4-31.31-11.43-45.37l9.11-5.68c5.21,0,10.3,1.61,14.58,4.59ZM114.25,125.77c0-5.98-4.84-10.82-10.82-10.82s-10.82,4.85-10.82,10.82,4.84,10.82,10.82,10.82,10.82-4.85,10.82-10.82Z"/>
      <path class="cls-5" d="M110.29,212.28c-9.26.6-17.57-.31-26.54-2.29-.53-2.13-2.19-4.12-2.29-6.41-.08-1.79,3.16-8.15,4.18-10.23.83-1.68,3.33-7.37,4.51-8.08.44-.26,2.59-1.02,3.18-1.17,16.95-4.18,28.25,15.12,16.95,28.17Z"/>
      <path class="cls-15" d="M111.2,174.29c.17,1.87-.2,3.82.04,5.68.58,4.59,4.38,10.88,9.11,12.17,2.72,5.65,5.54,11.27,8.24,16.94-6.13.91-12.09,2.8-18.3,3.2,11.3-13.05,0-32.36-16.95-28.17-.59.15-2.74.9-3.18,1.17.24-1.64,1.07-3.38,1.75-4.89,1.24-2.74,6.25-13.66,7.85-15.04,6.01-5.2,10.99,3.71,11.45,8.94Z"/>
      <path class="cls-21" d="M131.34,215.02c1.29,2.71,2.42,5.6,3.66,8.24-20.46,6-42.27,6.36-62.69,0-.65-.79-.25-1.23.05-1.99.84-2.13,2.21-4.19,3.16-6.25,17.96,5.66,37.86,5.66,55.83,0Z"/>
      <path class="cls-19" d="M83.74,209.99c8.97,1.98,17.29,2.89,26.54,2.29,6.21-.4,12.18-2.29,18.3-3.2.93,1.95,1.82,4,2.75,5.95-17.97,5.66-37.86,5.66-55.83,0,.92-2,1.8-3.96,2.75-5.95,1.83.08,3.71.52,5.49.92Z"/>
      <path class="cls-17" d="M103.42,100.21l-9.11,5.68c-16.97,14.06-9.89,40.58,11.43,45.37-3.23.3-6.48-.02-9.59-.94-2.62-.77-5.11-1.96-7.35-3.53-.45-.31-.89-.64-1.32-.98-1.85-1.47-3.49-3.19-4.87-5.12-6.68-9.31-6.35-21.92.79-30.87,1.55-1.94,3.38-3.65,5.42-5.07,4.29-2.97,9.39-4.56,14.6-4.56Z"/>
      <path class="cls-8" d="M129.96,160.55c1.4.18,5.57,1.58,6.86,2.29,3.47,1.91,4.46,4.94,6.86,7.32l1.31,5.78c.41,4.25-1.38,9.7-4.06,12.99-.33.41-1.37.95-1.83,1.37-4.72-9.77-9.48-19.94-14.19-29.75,1.61.14,3.48-.2,5.03,0Z"/>
      <path class="cls-15" d="M128.59,155.06c.54,1.59.64,3.83,1.37,5.49-1.56-.2-3.43.14-5.03,0-.05-.1-.73-.45-1-1.03-2.01-4.2-4.19-8.34-5.9-12.76.62-.44,1.23-.9,1.81-1.39,1.9,3.11,7.71,6.61,8.76,9.68Z"/>
      <path class="cls-15" d="M151.93,197.17s.13.63-.31.93c-2.14,1.43-4.91,2.5-7.01,4.11-1.9-3.92-3.64-8.06-5.49-11.9.46-.42,1.5-.96,1.83-1.37,2.16,4.19,6.26,7.54,10.98,8.24Z"/>
      <path class="cls-8" d="M111.2,174.29c1.11-.24.95.57,1.29,1.2,2.92,5.43,5.2,11.11,7.86,16.65-4.73-1.28-8.53-7.58-9.11-12.17-.24-1.87.13-3.82-.04-5.68Z"/>
      <path class="cls-15" d="M81.46,203.58c.1,2.28,1.76,4.27,2.29,6.41-1.78-.39-3.66-.84-5.49-.92.67-1.41,1.16-2.88,1.91-4.29.34-.64.18-1.45,1.29-1.2Z"/>
      <path class="cls-8" d="M59.95,173.37c3.43.92,7.48,1.49,10.98.46l2.75,4.58c-3.87,7.89-7.6,15.89-11.44,23.8-6.07-3.36-12.65-7.51-17.66-12.34-.49-.47-.56-1.3-.65-1.39,5.14-4.69,9.95-9.75,14.87-14.67.41-.41,1.09-.37,1.15-.43Z"/>
      <path class="cls-18" d="M81.91,151.4c.84,2.4,1.27,5.24.92,7.78-.27,1.92-3.74,8.94-5.03,10.53-1.07,1.32-5.27,3.65-6.86,4.12-3.5,1.03-7.55.47-10.98-.46,7.2-7.2,14.73-14.8,21.97-21.97Z"/>
      <path class="cls-15" d="M87.47,145.82c.43.34.87.67,1.32.98-1.5,4.34-3.61,8.48-5.97,12.38.35-2.55-.07-5.38-.92-7.78.08-.08.16-.9.65-1.38,1.42-1.41,2.99-3.42,4.91-4.2Z"/>
      <path class="cls-15" d="M73.68,178.41l-2.75-4.58c1.6-.47,5.8-2.8,6.86-4.12-.69,3.2-2.72,5.85-4.12,8.7Z"/>
      <path class="cls-2" d="M161.08,61.68c-3.08,3.39-6.31,6.68-9.6,9.87-.5.48-1.29.57-1.38.65-16.26-11.57-35.27,7.54-23.8,23.8-2.8,2.81-5.52,5.8-8.3,8.79-4.28-2.98-9.37-4.58-14.58-4.59s-10.32,1.58-14.6,4.56l-43.01-42.95c-.28-1.06.89-1.78,1.57-2.41,11.65-10.89,33.62-19.12,49.41-20.15,24.74-1.61,46.35,6.12,64.29,22.42Z"/>
      <path class="cls-2" d="M83.4,109.83c-7.14,8.95-7.47,21.56-.79,30.87-1.86.58-2.97,2.26-4.13,3.39-.36.35-1.05.35-1.14.44-7.41-6.33-20.46-4.87-25.63,3.66-4.37-8.02-13.71-12.1-22.43-8.47-3.34,1.39-8.76,6.57-9.15,10.3-3.91-11.01-4.49-23.8-3.08-35.35.11-.9.74-1.88.79-2.18,7.06,10.45,22.93,9.65,28.91-1.52,5.1-9.53-.4-22.04-10.95-24.46-2.47-.56-7.38-.56-9.72.34-.07-.87.3-1.56.67-2.31,1.28-2.57,11.57-18.17,13.69-17.8l42.96,43.08Z"/>
      <path class="cls-15" d="M187.16,148.2c-5.02-9.38-19.18-9.97-26.08-2.29-.18-.41-2.96-4.13-3.41-4.6-8.05-8.26-22.55-5.93-27.25,4.6-1.89-1.88-3.97-3.7-6.02-5.54,6.43-9.27,6.02-21.66-1-30.5,2.59-2.94,5.29-5.53,7.93-8.17.49-.49,1.3-.57,1.38-.65,14.31,6.2,28.64-8.15,22.42-22.43.08-.08.16-.89.65-1.38,3.55-3.55,7.06-7.16,10.79-10.52,21.37,22.36,28.76,51.37,20.59,81.48ZM185.38,112.52c0-9.34-7.57-16.91-16.91-16.91s-16.91,7.57-16.91,16.91,7.57,16.91,16.91,16.91,16.91-7.57,16.91-16.91Z"/>
      <path class="cls-12" d="M51.71,148.2c-2.49,4.11-3.13,11.59-1.37,16.02-4.19,7.14-12.97,9.42-20.59,6.87-.37-.59-1.54-1.46-2.2-2.61-1.95-3.41-7.77-15.05-7.41-18.45.39-3.74,5.81-8.91,9.15-10.3,8.71-3.63,18.05.45,22.43,8.47Z"/>
      <path class="cls-9" d="M26.08,86.86c2.34-.9,7.25-.91,9.72-.34,10.56,2.41,16.06,14.93,10.95,24.46-5.98,11.17-21.85,11.97-28.91,1.52.18-1.15-.14-2.47.12-3.78,1.14-5.74,4.24-15.76,7.07-20.81.22-.39.66-.89,1.05-1.04Z"/>
      <path class="cls-12" d="M187.16,148.2c-2.83,10.44-5.8,17.13-11.9,26.09-1.2-.08-2.48.12-3.66,0-5.76-.6-10.55-4.14-13.27-9.15.08-.11-.06-.87.26-1.32,3.75-5.28,5.25-11.74,2.49-17.9,6.9-7.68,21.06-7.09,26.08,2.29Z"/>
      <path class="cls-4" d="M166.57,66.72c-3.73,3.36-7.24,6.97-10.79,10.52-.49.49-.57,1.3-.65,1.38-7.34,7.34-15.09,15.09-22.42,22.43-.08.08-.89.17-1.38.65-2.63,2.63-5.33,5.23-7.93,8.17-1.54-1.94-3.36-3.65-5.4-5.07,2.78-2.99,5.5-5.98,8.3-8.79,7.88-7.89,15.92-16.14,23.8-23.8.09-.09.88-.17,1.38-.65,3.28-3.19,6.52-6.49,9.6-9.87,1.86,1.69,3.62,3.08,5.49,5.04Z"/>
      <path class="cls-4" d="M130.42,145.91c7.48,7.47,14.87,15.02,22.42,22.43,5.08,4.98,10.31,9.84,15.1,15.11-1.65,1.8-3.26,3.36-5.03,5.04-6.17-5.65-11.88-11.78-17.83-17.66-.5-.49-1.29-.56-1.39-.65-2.41-2.38-3.4-5.41-6.86-7.32-2.62-2.53-4.98-6.07-8.24-7.78-1.04-3.08-6.85-6.58-8.76-9.68,1.74-1.46,3.27-3.15,4.57-5.01,2.04,1.85,4.13,3.66,6.02,5.54Z"/>
      <path class="cls-4" d="M82.61,140.7c1.38,1.92,3.02,3.64,4.87,5.12-1.92.77-3.49,2.79-4.91,4.2-.49.49-.57,1.3-.65,1.38-7.24,7.18-14.77,14.77-21.97,21.97-.06.06-.74.03-1.15.43-4.92,4.92-9.73,9.98-14.87,14.67-1.74-1.69-3.4-3.23-5.03-5.04,1.62-1.73,3.34-3.9,5.03-5.49.11-.1.87-.16,1.39-.65,1.87-1.77,4.33-3.96,5.48-6.21,1.27-.87,1.66-1.35,2.75-2.29,8.55-7.41,15.91-16.45,23.8-24.26.09-.09.78-.09,1.14-.44,1.16-1.13,2.27-2.8,4.13-3.39Z"/>
      <path class="cls-9" d="M162.91,188.48c-4.29,4.04-6.24,5.45-10.98,8.7-4.72-.7-8.83-4.05-10.98-8.24,2.68-3.29,4.47-8.74,4.06-12.99l-1.31-5.78c.09.09.89.16,1.39.65,5.95,5.87,11.66,12.01,17.83,17.66Z"/>
      <path class="cls-15" d="M53.54,168.79c-1.09.94-1.47,1.41-2.75,2.29-.22.15-.98.19-1.51.53-2.36,1.53-4.64,3.49-5.35,6.34-1.69,1.59-3.41,3.77-5.03,5.49-4.35-4.82-5.75-6.92-9.15-12.36,7.63,2.55,16.4.27,20.59-6.87.54,1.36,2.4,3.24,3.2,4.58Z"/>
      <path class="cls-9" d="M158.33,165.13c2.72,5.01,7.51,8.56,13.27,9.15l.92,3.66c-1.73,2.24-2.66,3.4-4.58,5.49-4.79-5.27-10.02-10.13-15.1-15.11.73-.49,5.3-2.95,5.49-3.2Z"/>
      <path class="cls-15" d="M175.27,174.29c-1,1.48-1.7,2.3-2.75,3.66l-.92-3.66c1.18.12,2.47-.08,3.66,0Z"/>
      <circle class="cls-4" cx="103.43" cy="125.77" r="10.82"/>
      <path class="cls-18" d="M128.59,155.06c3.26,1.71,5.61,5.25,8.24,7.78-1.29-.71-5.47-2.11-6.86-2.29-.73-1.67-.83-3.9-1.37-5.49Z"/>
      <path class="cls-7" d="M150.1,72.21c-7.88,7.66-15.92,15.91-23.8,23.8-11.48-16.26,7.54-35.38,23.8-23.8Z"/>
      <path class="cls-18" d="M77.34,144.53c-7.89,7.81-15.25,16.85-23.8,24.26-.8-1.34-2.66-3.22-3.2-4.58-1.76-4.43-1.12-11.91,1.37-16.02,5.17-8.53,18.21-9.99,25.63-3.66Z"/>
      <ellipse class="cls-8" cx="168.47" cy="112.52" rx="16.91" ry="16.91"/>
      <path class="cls-18" d="M161.08,145.91c2.76,6.16,1.27,12.63-2.49,17.9-.32.45-.18,1.22-.26,1.32-.19.26-4.77,2.72-5.49,3.2-7.56-7.41-14.94-14.96-22.42-22.43,4.7-10.53,19.19-12.85,27.25-4.6.45.46,3.23,4.19,3.41,4.6Z"/>
      <path class="cls-7" d="M155.13,78.62c6.22,14.28-8.11,28.63-22.42,22.43,7.33-7.34,15.08-15.09,22.42-22.43Z"/>
      <path class="cls-8" d="M50.8,171.08c-1.15,2.25-3.61,4.44-5.48,6.21-.52.49-1.28.55-1.39.65.71-2.85,2.99-4.81,5.35-6.34.53-.34,1.29-.38,1.51-.53Z"/>
    </g>
  </g>
</svg>